<svg width="153" height="108" viewBox="0 0 153 108" fill="none" xmlns="http://www.w3.org/2000/svg">
<path d="M46.28 0.359993V32.04H34.248V20.456H26.248V16.232C24.2853 20.6267 21.2773 23.6773 17.224 25.384C13.1707 27.048 7.92268 27.88 1.48001 27.88L0.200012 18.28C4.55201 18.28 8.22135 17.5973 11.208 16.232C14.1947 14.824 15.688 12.904 15.688 10.472H1.48001V0.999992H28.808C28.808 4.62666 28.5093 7.89066 27.912 10.792H34.248V0.359993H46.28ZM14.792 30.76V39.4H46.28V49H2.76001V30.76H14.792Z" fill="#F08080"/>
<path d="M87.373 0.231995V18.856H79.693V28.456H87.373V49H99.405V0.231995H87.373ZM53.965 47.08H82.509V37.48H65.997V0.871994H53.965V47.08Z" fill="#F08080"/>
<path d="M99.28 59.36V91.04H87.248V79.456H79.248V75.232C77.2853 79.6267 74.2773 82.6773 70.224 84.384C66.1707 86.048 60.9227 86.88 54.48 86.88L53.2 77.28C57.552 77.28 61.2213 76.5973 64.208 75.232C67.1947 73.824 68.688 71.904 68.688 69.472H54.48V60H81.808C81.808 63.6267 81.5093 66.8907 80.912 69.792H87.248V59.36H99.28ZM67.792 89.76V98.4H99.28V108H55.76V89.76H67.792Z" fill="#4B1111"/>
<path d="M140.373 59.232V77.856H132.693V87.456H140.373V108H152.405V59.232H140.373ZM106.965 106.08H135.509V96.48H118.997V59.872H106.965V106.08Z" fill="#4B1111"/>
<path d="M143.875 46.4583H147.292V49.875H109.708V46.4583H113.125V20.8333C113.125 20.3803 113.305 19.9457 113.625 19.6254C113.946 19.305 114.38 19.125 114.833 19.125H131.917C132.37 19.125 132.804 19.305 133.125 19.6254C133.445 19.9457 133.625 20.3803 133.625 20.8333V46.4583H140.458V32.7917H137.042V29.375H142.167C142.62 29.375 143.054 29.555 143.375 29.8754C143.695 30.1957 143.875 30.6303 143.875 31.0833V46.4583ZM116.542 22.5417V46.4583H130.208V22.5417H116.542ZM119.958 32.7917H126.792V36.2083H119.958V32.7917ZM119.958 25.9583H126.792V29.375H119.958V25.9583Z" fill="#4B1111"/>
</svg>
